<svg xmlns="http://www.w3.org/2000/svg" width="22" height="24" viewBox="0 0 22 24"><path id="iconmonstr-phone-4" d="M20.89,23.654c-7.367,3.367-18.8-18.86-11.6-22.615L11.4,0l3.492,6.817L12.805,7.843c-2.189,1.174,2.37,10.08,4.609,8.994.091-.041,2.057-1.007,2.064-1.011L23,22.621C22.992,22.625,21.011,23.6,20.89,23.654ZM11.452,21.39c-1.476,1.072-3.506,1.17-4.124.106A4.03,4.03,0,0,1,7.2,18.7a5.206,5.206,0,0,0-.3-3.71c-1.219-2.076-3.9-1.983-5.906-.67l.956,1.463a3.432,3.432,0,0,1,2.493-.609C6.1,15.565,5.6,17.7,5.479,18.406a5.548,5.548,0,0,0,.337,3.968c1.243,2.143,4.579,2.076,6.836.316-.412-.407-.811-.843-1.2-1.3Z" transform="translate(-1)" fill=""></path></svg>